<?xml version="1.0" standalone="no"?>
<!DOCTYPE svg PUBLIC "-//W3C//DTD SVG 20010904//EN"
 "http://www.w3.org/TR/2001/REC-SVG-20010904/DTD/svg10.dtd">
<svg version="1.0" xmlns="http://www.w3.org/2000/svg"
 width="200.000000pt" height="200.000000pt" viewBox="0 0 200.000000 200.000000"
 preserveAspectRatio="xMidYMid meet">
<metadata>
Created by potrace 1.14, written by Peter Selinger 2001-2017
</metadata>
<g transform="translate(0.000000,200.000000) scale(0.100000,-0.100000)"
fill="#000000" stroke="none">
<path d="M870 1873 c-361 -51 -670 -317 -763 -658 -29 -107 -32 -128 -31 -270
1 -110 6 -157 23 -220 83 -308 322 -557 625 -651 28 -8 89 -21 136 -28 461
-66 899 225 1021 679 25 91 34 312 17 386 -5 24 -11 51 -13 60 -20 97 -91 250
-156 337 -177 235 -453 372 -743 369 -50 0 -102 -2 -116 -4z m300 -236 c264
-87 434 -261 498 -511 28 -106 24 -272 -8 -371 -71 -222 -233 -389 -445 -460
-104 -35 -227 -48 -315 -33 -84 14 -105 19 -170 45 -193 77 -341 237 -407 438
-35 110 -40 268 -12 381 66 254 248 439 504 510 66 18 100 22 195 19 65 -2
135 -10 160 -18z"/>
<path d="M936 1490 c-31 -50 -54 -95 -51 -100 4 -6 19 -8 36 -5 l29 5 0 -180
0 -181 -22 12 c-25 13 -281 160 -286 165 -2 1 4 16 12 33 9 16 16 32 16 33 0
3 -54 3 -188 -1 l-33 -1 52 -97 c28 -54 53 -100 55 -101 1 -2 11 12 21 32 l18
36 125 -72 c69 -40 138 -79 153 -87 15 -8 26 -19 24 -24 -3 -10 -285 -177
-298 -177 -4 0 -12 14 -19 31 -8 18 -16 27 -22 21 -19 -19 -106 -182 -100
-186 4 -2 55 -5 114 -5 l108 -1 -21 34 -20 34 150 86 c82 47 151 86 155 86 3
0 6 -81 6 -180 l0 -180 -35 0 c-19 0 -35 -2 -35 -5 0 -3 24 -46 54 -95 61
-104 53 -105 129 23 l47 77 -40 0 -40 0 0 180 c0 99 3 180 7 180 12 0 303
-172 303 -179 0 -4 -7 -16 -15 -27 -8 -10 -15 -22 -15 -26 0 -5 50 -8 110 -8
105 0 121 4 101 25 -4 6 -28 48 -52 93 -43 82 -44 83 -60 63 -10 -12 -19 -27
-21 -33 -3 -8 -59 19 -149 71 -79 46 -148 87 -153 91 -5 5 11 20 35 35 24 14
93 55 153 90 l110 64 18 -30 c10 -16 20 -29 22 -29 8 0 108 182 103 186 -7 8
-217 12 -217 5 0 -4 7 -16 15 -27 19 -26 19 -43 -2 -51 -10 -4 -77 -42 -151
-85 -73 -43 -135 -78 -137 -78 -3 0 -5 81 -5 179 l0 180 35 -3 c22 -3 35 1 35
8 -1 6 -25 51 -54 99 l-54 89 -56 -92z"/>
</g>
</svg>
